<svg xmlns="http://www.w3.org/2000/svg" width="48" height="48"><g letter-spacing="0" word-spacing="0" font-size="42" font-family="Swis721 Md BT"><path d="M28.103 10.19H23.12c-.384-1.79-1.252-3.186-2.605-4.184-1.34-1.01-3.022-1.517-5.045-1.517-3.022 0-5.367 1-7.034 3.01-1.668 1.99-2.502 4.81-2.502 8.45 0 3.57.84 6.37 2.522 8.43 1.682 2.05 3.98 3.07 6.89 3.07 2.475 0 4.478-.767 6.01-2.298 1.544-1.53 2.365-3.58 2.46-6.15h-8.264V14.84h12.9c.168.195-1.832 10.195-4.164 12.49-1.12 1.518-2.48 2.666-4.08 3.446-1.6.78-3.405 1.17-5.415 1.17-4.17 0-7.554-1.455-10.15-4.37-2.586-2.92-3.878-6.758-3.878-11.5 0-4.84 1.305-8.703 3.917-11.587C7.292 1.6 10.78.16 15.142.16c3.636 0 6.596.88 8.88 2.645 2.284 1.764 3.644 4.225 4.082 7.383" style="-inkscape-font-specification:Swis721 Md BT Bold" font-weight="bold"/><path d="M46.394 25.65l-4.78.02c-.108-1.71-.758-3.05-1.947-4.02-1.176-.97-2.755-1.456-4.737-1.456-1.64 0-2.98.382-4.02 1.148-1.04.766-1.558 1.716-1.558 2.85 0 1.15.458 2.092 1.374 2.83.916.725 2.836 1.464 5.762 2.215 4.444 1.122 7.342 2.338 8.696 3.65 1.367 1.313 2.05 3.145 2.05 5.497 0 2.844-1.066 5.134-3.2 6.87-2.118 1.723-4.955 2.584-8.51 2.584-3.746 0-6.665-.902-8.756-2.707-2.08-1.8-3.193-4.4-3.343-7.79h4.88c.137 1.96.87 3.48 2.195 4.56 1.34 1.08 3.15 1.62 5.435 1.62 1.722 0 3.13-.415 4.224-1.25 1.1-.833 1.66-1.86 1.66-3.075 0-.48-.16-1.02-.47-1.62-.31-.616-.7-1.142-1.17-1.58-.8-.724-2.56-1.42-5.29-2.09-.59-.152-1.04-.26-1.34-.33-3.38-.89-5.767-2.016-7.16-3.383-1.396-1.38-2.09-3.253-2.09-5.62 0-2.515 1.015-4.56 3.052-6.13 2.05-1.587 4.772-2.38 8.162-2.38 3.294 0 5.92.87 7.874 2.604 1.97 1.724 2.966 4.055 2.994 6.995" style="-inkscape-font-specification:Swis721 Md BT"/></g></svg>